#define close_width 20
#define close_height 20
static unsigned char close_bits[] = {
   0x00, 0x04, 0x00, 0x00, 0x04, 0x00, 0x00, 0x0c, 0x00, 0x00, 0x0c, 0x00,
   0x00, 0x1c, 0x00, 0x00, 0x1c, 0x00, 0x00, 0x3c, 0x00, 0x00, 0xfc, 0x00,
   0x00, 0xfc, 0x03, 0x00, 0xfc, 0x0f, 0xff, 0x03, 0x00, 0xfc, 0x03, 0x00,
   0xf0, 0x03, 0x00, 0xc0, 0x03, 0x00, 0x80, 0x03, 0x00, 0x80, 0x03, 0x00,
   0x00, 0x03, 0x00, 0x00, 0x03, 0x00, 0x00, 0x02, 0x00, 0x00, 0x02, 0x00 };
