#define iconify_width 20
#define iconify_height 20
static unsigned char iconify_bits[] = {
   0x00, 0x00, 0x00, 0x00, 0x00, 0x00, 0x00, 0x00, 0x00, 0x00, 0x00, 0x00,
   0x80, 0x00, 0x00, 0x80, 0x00, 0x00, 0x80, 0x00, 0x00, 0x80, 0x01, 0x00,
   0x80, 0x01, 0x00, 0x80, 0x03, 0x00, 0x80, 0x03, 0x00, 0x80, 0x07, 0x00,
   0x80, 0x0f, 0x00, 0x80, 0x3f, 0x00, 0x80, 0xff, 0x00, 0x80, 0xff, 0x07,
   0x00, 0x00, 0x00, 0x00, 0x00, 0x00, 0x00, 0x00, 0x00, 0x00, 0x00, 0x00 };
